<?xml version="1.0" standalone="no"?>
<!DOCTYPE svg PUBLIC "-//W3C//DTD SVG 20010904//EN"
 "http://www.w3.org/TR/2001/REC-SVG-20010904/DTD/svg10.dtd">
<svg version="1.0" xmlns="http://www.w3.org/2000/svg"
 width="9pt" height="9pt" viewBox="0 0 229.000000 220.000000"
 preserveAspectRatio="xMidYMid meet">
<metadata>
Created by potrace 1.16, written by Peter Selinger 2001-2019
</metadata>
<g transform="translate(0.000000,220.000000) scale(0.100000,-0.100000)"
fill="#000000" stroke="none">
<path d="M1100 2183 c-32 -16 -49 -46 -191 -333 l-155 -315 -335 -48 c-224
-33 -344 -54 -364 -66 -40 -23 -59 -63 -50 -109 6 -31 45 -74 257 -282 l249
-245 -55 -321 c-31 -177 -56 -338 -56 -357 0 -44 39 -93 81 -102 36 -8 84 14
423 194 126 66 234 121 240 121 6 0 144 -70 306 -156 327 -173 356 -183 405
-133 14 14 28 41 31 60 3 20 -17 166 -51 364 l-56 329 242 241 c133 133 248
254 256 269 26 50 5 104 -53 134 -11 6 -170 32 -354 59 l-334 48 -152 312
c-100 205 -160 317 -176 327 -39 25 -71 28 -108 9z m215 -403 c91 -181 169
-330 174 -330 32 0 698 -103 704 -109 4 -4 -110 -124 -254 -268 -202 -202
-260 -265 -256 -279 18 -59 118 -687 111 -694 -5 -5 -148 65 -319 155 -170 91
-319 164 -330 164 -11 0 -159 -73 -330 -164 -175 -93 -314 -160 -319 -155 -5
5 18 161 52 362 l61 353 -261 258 c-149 147 -257 262 -252 267 5 5 167 32 359
60 193 28 353 54 357 58 4 4 79 152 167 330 88 177 163 322 166 322 3 0 79
-148 170 -330z"/>
</g>
</svg>
